<svg width="250" height="250" fill="none" xmlns="http://www.w3.org/2000/svg"><path fill="url(#paint0_linear)" d="M0 0h250v250H0z"/><g filter="url(#filter0_d)"><path d="M135.43 108.688h20.508v58.535c0 5.429-1.27 10.273-3.809 14.531-2.5 4.258-6.016 7.558-10.547 9.902-4.492 2.344-9.512 3.516-15.059 3.516-9.296 0-16.523-2.344-21.679-7.031-5.156-4.688-7.735-11.329-7.735-19.922h20.625c0 3.906.664 6.738 1.993 8.496 1.367 1.758 3.632 2.637 6.796 2.637 2.852 0 5.039-1.055 6.563-3.164 1.562-2.149 2.344-5.137 2.344-8.965v-58.535zm77.519 62.636c0-3.008-1.074-5.351-3.222-7.031-2.11-1.68-5.84-3.418-11.192-5.215-5.351-1.797-9.726-3.535-13.125-5.215-11.055-5.429-16.582-12.89-16.582-22.383 0-4.726 1.367-8.886 4.102-12.48 2.773-3.633 6.679-6.445 11.718-8.438 5.04-2.031 10.704-3.046 16.993-3.046 6.132 0 11.621 1.093 16.464 3.281 4.883 2.187 8.672 5.312 11.368 9.375 2.695 4.023 4.043 8.633 4.043 13.828h-20.508c0-3.477-1.074-6.172-3.223-8.086-2.109-1.914-4.98-2.871-8.613-2.871-3.672 0-6.582.82-8.731 2.461-2.109 1.601-3.164 3.652-3.164 6.152 0 2.188 1.172 4.18 3.516 5.977 2.344 1.758 6.465 3.594 12.363 5.508 5.899 1.875 10.742 3.906 14.532 6.093 9.218 5.313 13.828 12.637 13.828 21.973 0 7.461-2.813 13.32-8.438 17.578-5.625 4.258-13.34 6.387-23.144 6.387-6.914 0-13.184-1.231-18.809-3.692-5.586-2.5-9.805-5.898-12.656-10.195-2.813-4.336-4.219-9.316-4.219-14.941h20.625c0 4.57 1.172 7.949 3.516 10.136 2.382 2.149 6.23 3.223 11.543 3.223 3.398 0 6.074-.723 8.027-2.168 1.992-1.484 2.988-3.555 2.988-6.211z" fill="#1C1C1C"/></g><g filter="url(#filter1_d)"><path d="M99.904 223v-21.328h6.563c1.875 0 3.55.425 5.024 1.274 1.485.84 2.642 2.041 3.472 3.604.83 1.553 1.245 3.32 1.245 5.303v.981c0 1.982-.41 3.745-1.23 5.288-.811 1.543-1.958 2.739-3.443 3.589-1.484.85-3.159 1.279-5.024 1.289h-6.607zm4.395-17.769v14.239h2.124c1.719 0 3.032-.562 3.94-1.685.908-1.123 1.372-2.729 1.392-4.819v-1.128c0-2.168-.449-3.809-1.348-4.922-.898-1.123-2.212-1.685-3.94-1.685h-2.168zm22.134 18.062c-2.325 0-4.219-.713-5.684-2.139-1.455-1.425-2.183-3.325-2.183-5.698v-.41c0-1.592.308-3.013.923-4.263.615-1.26 1.485-2.226 2.608-2.9 1.132-.684 2.422-1.026 3.867-1.026 2.168 0 3.872.684 5.112 2.051 1.25 1.367 1.875 3.306 1.875 5.816v1.728h-10.093c.137 1.035.547 1.865 1.231 2.49.693.625 1.567.938 2.622.938 1.631 0 2.905-.591 3.823-1.773l2.08 2.33c-.635.898-1.494 1.601-2.578 2.109-1.084.498-2.285.747-3.603.747zm-.484-13.008c-.84 0-1.523.283-2.051.85-.517.566-.849 1.377-.996 2.431h5.889v-.337c-.02-.937-.273-1.66-.762-2.167-.488-.518-1.181-.777-2.08-.777zm15.147 7.544l2.944-10.679h4.424L143.117 223h-4.043l-5.346-15.85h4.423l2.945 10.679zm16.333 5.464c-2.325 0-4.219-.713-5.684-2.139-1.455-1.425-2.183-3.325-2.183-5.698v-.41c0-1.592.308-3.013.923-4.263.616-1.26 1.485-2.226 2.608-2.9 1.133-.684 2.422-1.026 3.867-1.026 2.168 0 3.872.684 5.112 2.051 1.25 1.367 1.875 3.306 1.875 5.816v1.728h-10.093c.137 1.035.547 1.865 1.231 2.49.693.625 1.567.938 2.622.938 1.631 0 2.905-.591 3.823-1.773l2.08 2.33c-.634.898-1.494 1.601-2.578 2.109-1.084.498-2.285.747-3.603.747zm-.484-13.008c-.84 0-1.523.283-2.05.85-.518.566-.85 1.377-.997 2.431h5.889v-.337c-.019-.937-.273-1.66-.762-2.167-.488-.518-1.181-.777-2.08-.777zM170.832 223h-4.248v-22.5h4.248V223zm2.842-8.071c0-1.573.303-2.974.908-4.204.606-1.231 1.475-2.183 2.607-2.857 1.143-.674 2.466-1.011 3.97-1.011 2.139 0 3.882.655 5.23 1.963 1.357 1.309 2.114 3.086 2.27 5.332l.029 1.084c0 2.432-.678 4.385-2.036 5.86-1.357 1.465-3.178 2.197-5.464 2.197-2.285 0-4.111-.732-5.478-2.197-1.357-1.465-2.036-3.457-2.036-5.977v-.19zm4.233.307c0 1.504.283 2.657.85 3.457.566.791 1.377 1.187 2.431 1.187 1.026 0 1.827-.391 2.403-1.172.576-.791.864-2.051.864-3.779 0-1.475-.288-2.617-.864-3.428-.576-.811-1.387-1.216-2.432-1.216-1.035 0-1.836.405-2.402 1.216-.567.801-.85 2.046-.85 3.735zm27.656-.014c0 2.441-.556 4.399-1.669 5.874-1.104 1.465-2.598 2.197-4.483 2.197-1.601 0-2.895-.557-3.882-1.67v7.471h-4.233V207.15h3.926l.146 1.553c1.026-1.23 2.363-1.846 4.014-1.846 1.953 0 3.472.723 4.556 2.168 1.083 1.446 1.625 3.438 1.625 5.977v.22zm-4.233-.308c0-1.475-.264-2.612-.791-3.413-.518-.801-1.274-1.201-2.27-1.201-1.329 0-2.242.508-2.74 1.523v6.489c.518 1.045 1.441 1.568 2.769 1.568 2.021 0 3.032-1.655 3.032-4.966zm14.165 8.379c-2.324 0-4.219-.713-5.683-2.139-1.456-1.425-2.183-3.325-2.183-5.698v-.41c0-1.592.308-3.013.923-4.263.615-1.26 1.484-2.226 2.607-2.9 1.133-.684 2.422-1.026 3.867-1.026 2.168 0 3.872.684 5.113 2.051 1.25 1.367 1.875 3.306 1.875 5.816v1.728h-10.093c.137 1.035.547 1.865 1.23 2.49.694.625 1.568.938 2.622.938 1.631 0 2.906-.591 3.824-1.773l2.08 2.33c-.635.898-1.494 1.601-2.578 2.109-1.084.498-2.286.747-3.604.747zm-.483-13.008c-.84 0-1.524.283-2.051.85-.518.566-.85 1.377-.996 2.431h5.889v-.337c-.02-.937-.274-1.66-.762-2.167-.488-.518-1.182-.777-2.08-.777zm18.325.835a11.518 11.518 0 00-1.524-.117c-1.601 0-2.651.542-3.149 1.626V223h-4.233v-15.85h3.999l.117 1.89c.849-1.455 2.026-2.183 3.53-2.183.469 0 .908.064 1.319.191l-.059 4.072z" fill="#F1F1F1"/></g><defs><filter id="filter0_d" x="93.109" y="107.516" width="144.406" height="95.656" filterUnits="userSpaceOnUse" color-interpolation-filters="sRGB"><feFlood flood-opacity="0" result="BackgroundImageFix"/><feColorMatrix in="SourceAlpha" values="0 0 0 0 0 0 0 0 0 0 0 0 0 0 0 0 0 0 127 0"/><feOffset dy="4"/><feGaussianBlur stdDeviation="2"/><feColorMatrix values="0 0 0 0 0 0 0 0 0 0 0 0 0 0 0 0 0 0 0.25 0"/><feBlend in2="BackgroundImageFix" result="effect1_dropShadow"/><feBlend in="SourceGraphic" in2="effect1_dropShadow" result="shape"/></filter><filter id="filter1_d" x="95.904" y="200.5" width="141.491" height="36.594" filterUnits="userSpaceOnUse" color-interpolation-filters="sRGB"><feFlood flood-opacity="0" result="BackgroundImageFix"/><feColorMatrix in="SourceAlpha" values="0 0 0 0 0 0 0 0 0 0 0 0 0 0 0 0 0 0 127 0"/><feOffset dy="4"/><feGaussianBlur stdDeviation="2"/><feColorMatrix values="0 0 0 0 0 0 0 0 0 0 0 0 0 0 0 0 0 0 0.25 0"/><feBlend in2="BackgroundImageFix" result="effect1_dropShadow"/><feBlend in="SourceGraphic" in2="effect1_dropShadow" result="shape"/></filter><linearGradient id="paint0_linear" x1="-85.5" y1="-34.5" x2="250" y2="273.5" gradientUnits="userSpaceOnUse"><stop stop-color="#F1F1F1"/><stop offset=".255" stop-color="#359BFF"/><stop offset=".667" stop-color="#0876E1"/></linearGradient></defs></svg>