<svg width="250" height="250" viewBox="0 0 250 250" fill="none" xmlns="http://www.w3.org/2000/svg">
<rect width="250" height="250" fill="url(#paint0_linear)"/>
<g filter="url(#filter0_d)">
<path d="M135.43 108.688H155.938V167.223C155.938 172.652 154.668 177.496 152.129 181.754C149.629 186.012 146.113 189.312 141.582 191.656C137.09 194 132.07 195.172 126.523 195.172C117.227 195.172 110 192.828 104.844 188.141C99.6875 183.453 97.1094 176.812 97.1094 168.219H117.734C117.734 172.125 118.398 174.957 119.727 176.715C121.094 178.473 123.359 179.352 126.523 179.352C129.375 179.352 131.562 178.297 133.086 176.188C134.648 174.039 135.43 171.051 135.43 167.223V108.688ZM212.949 171.324C212.949 168.316 211.875 165.973 209.727 164.293C207.617 162.613 203.887 160.875 198.535 159.078C193.184 157.281 188.809 155.543 185.41 153.863C174.355 148.434 168.828 140.973 168.828 131.48C168.828 126.754 170.195 122.594 172.93 119C175.703 115.367 179.609 112.555 184.648 110.562C189.688 108.531 195.352 107.516 201.641 107.516C207.773 107.516 213.262 108.609 218.105 110.797C222.988 112.984 226.777 116.109 229.473 120.172C232.168 124.195 233.516 128.805 233.516 134H213.008C213.008 130.523 211.934 127.828 209.785 125.914C207.676 124 204.805 123.043 201.172 123.043C197.5 123.043 194.59 123.863 192.441 125.504C190.332 127.105 189.277 129.156 189.277 131.656C189.277 133.844 190.449 135.836 192.793 137.633C195.137 139.391 199.258 141.227 205.156 143.141C211.055 145.016 215.898 147.047 219.688 149.234C228.906 154.547 233.516 161.871 233.516 171.207C233.516 178.668 230.703 184.527 225.078 188.785C219.453 193.043 211.738 195.172 201.934 195.172C195.02 195.172 188.75 193.941 183.125 191.48C177.539 188.98 173.32 185.582 170.469 181.285C167.656 176.949 166.25 171.969 166.25 166.344H186.875C186.875 170.914 188.047 174.293 190.391 176.48C192.773 178.629 196.621 179.703 201.934 179.703C205.332 179.703 208.008 178.98 209.961 177.535C211.953 176.051 212.949 173.98 212.949 171.324Z" fill="#1C1C1C"/>
</g>
<g filter="url(#filter1_d)">
<path d="M99.9043 223V201.672H106.467C108.342 201.672 110.017 202.097 111.491 202.946C112.976 203.786 114.133 204.987 114.963 206.55C115.793 208.103 116.208 209.87 116.208 211.853V212.834C116.208 214.816 115.798 216.579 114.978 218.122C114.167 219.665 113.02 220.861 111.535 221.711C110.051 222.561 108.376 222.99 106.511 223H99.9043ZM104.299 205.231V219.47H106.423C108.142 219.47 109.455 218.908 110.363 217.785C111.271 216.662 111.735 215.056 111.755 212.966V211.838C111.755 209.67 111.306 208.029 110.407 206.916C109.509 205.793 108.195 205.231 106.467 205.231H104.299ZM126.433 223.293C124.108 223.293 122.214 222.58 120.749 221.154C119.294 219.729 118.566 217.829 118.566 215.456V215.046C118.566 213.454 118.874 212.033 119.489 210.783C120.104 209.523 120.974 208.557 122.097 207.883C123.229 207.199 124.519 206.857 125.964 206.857C128.132 206.857 129.836 207.541 131.076 208.908C132.326 210.275 132.951 212.214 132.951 214.724V216.452H122.858C122.995 217.487 123.405 218.317 124.089 218.942C124.782 219.567 125.656 219.88 126.711 219.88C128.342 219.88 129.616 219.289 130.534 218.107L132.614 220.437C131.979 221.335 131.12 222.038 130.036 222.546C128.952 223.044 127.751 223.293 126.433 223.293ZM125.949 210.285C125.109 210.285 124.426 210.568 123.898 211.135C123.381 211.701 123.049 212.512 122.902 213.566H128.791V213.229C128.771 212.292 128.518 211.569 128.029 211.062C127.541 210.544 126.848 210.285 125.949 210.285ZM141.096 217.829L144.04 207.15H148.464L143.117 223H139.074L133.728 207.15H138.151L141.096 217.829ZM157.429 223.293C155.104 223.293 153.21 222.58 151.745 221.154C150.29 219.729 149.562 217.829 149.562 215.456V215.046C149.562 213.454 149.87 212.033 150.485 210.783C151.101 209.523 151.97 208.557 153.093 207.883C154.226 207.199 155.515 206.857 156.96 206.857C159.128 206.857 160.832 207.541 162.072 208.908C163.322 210.275 163.947 212.214 163.947 214.724V216.452H153.854C153.991 217.487 154.401 218.317 155.085 218.942C155.778 219.567 156.652 219.88 157.707 219.88C159.338 219.88 160.612 219.289 161.53 218.107L163.61 220.437C162.976 221.335 162.116 222.038 161.032 222.546C159.948 223.044 158.747 223.293 157.429 223.293ZM156.945 210.285C156.105 210.285 155.422 210.568 154.895 211.135C154.377 211.701 154.045 212.512 153.898 213.566H159.787V213.229C159.768 212.292 159.514 211.569 159.025 211.062C158.537 210.544 157.844 210.285 156.945 210.285ZM170.832 223H166.584V200.5H170.832V223ZM173.674 214.929C173.674 213.356 173.977 211.955 174.582 210.725C175.188 209.494 176.057 208.542 177.189 207.868C178.332 207.194 179.655 206.857 181.159 206.857C183.298 206.857 185.041 207.512 186.389 208.82C187.746 210.129 188.503 211.906 188.659 214.152L188.688 215.236C188.688 217.668 188.01 219.621 186.652 221.096C185.295 222.561 183.474 223.293 181.188 223.293C178.903 223.293 177.077 222.561 175.71 221.096C174.353 219.631 173.674 217.639 173.674 215.119V214.929ZM177.907 215.236C177.907 216.74 178.19 217.893 178.757 218.693C179.323 219.484 180.134 219.88 181.188 219.88C182.214 219.88 183.015 219.489 183.591 218.708C184.167 217.917 184.455 216.657 184.455 214.929C184.455 213.454 184.167 212.312 183.591 211.501C183.015 210.69 182.204 210.285 181.159 210.285C180.124 210.285 179.323 210.69 178.757 211.501C178.19 212.302 177.907 213.547 177.907 215.236ZM205.563 215.222C205.563 217.663 205.007 219.621 203.894 221.096C202.79 222.561 201.296 223.293 199.411 223.293C197.81 223.293 196.516 222.736 195.529 221.623V229.094H191.296V207.15H195.222L195.368 208.703C196.394 207.473 197.731 206.857 199.382 206.857C201.335 206.857 202.854 207.58 203.938 209.025C205.021 210.471 205.563 212.463 205.563 215.002V215.222ZM201.33 214.914C201.33 213.439 201.066 212.302 200.539 211.501C200.021 210.7 199.265 210.3 198.269 210.3C196.94 210.3 196.027 210.808 195.529 211.823V218.312C196.047 219.357 196.97 219.88 198.298 219.88C200.319 219.88 201.33 218.225 201.33 214.914ZM215.495 223.293C213.171 223.293 211.276 222.58 209.812 221.154C208.356 219.729 207.629 217.829 207.629 215.456V215.046C207.629 213.454 207.937 212.033 208.552 210.783C209.167 209.523 210.036 208.557 211.159 207.883C212.292 207.199 213.581 206.857 215.026 206.857C217.194 206.857 218.898 207.541 220.139 208.908C221.389 210.275 222.014 212.214 222.014 214.724V216.452H211.921C212.058 217.487 212.468 218.317 213.151 218.942C213.845 219.567 214.719 219.88 215.773 219.88C217.404 219.88 218.679 219.289 219.597 218.107L221.677 220.437C221.042 221.335 220.183 222.038 219.099 222.546C218.015 223.044 216.813 223.293 215.495 223.293ZM215.012 210.285C214.172 210.285 213.488 210.568 212.961 211.135C212.443 211.701 212.111 212.512 211.965 213.566H217.854V213.229C217.834 212.292 217.58 211.569 217.092 211.062C216.604 210.544 215.91 210.285 215.012 210.285ZM233.337 211.12C232.761 211.042 232.253 211.003 231.813 211.003C230.212 211.003 229.162 211.545 228.664 212.629V223H224.431V207.15H228.43L228.547 209.04C229.396 207.585 230.573 206.857 232.077 206.857C232.546 206.857 232.985 206.921 233.396 207.048L233.337 211.12Z" fill="#F1F1F1"/>
</g>
<defs>
<filter id="filter0_d" x="93.1094" y="107.516" width="144.406" height="95.6562" filterUnits="userSpaceOnUse" color-interpolation-filters="sRGB">
<feFlood flood-opacity="0" result="BackgroundImageFix"/>
<feColorMatrix in="SourceAlpha" type="matrix" values="0 0 0 0 0 0 0 0 0 0 0 0 0 0 0 0 0 0 127 0"/>
<feOffset dy="4"/>
<feGaussianBlur stdDeviation="2"/>
<feColorMatrix type="matrix" values="0 0 0 0 0 0 0 0 0 0 0 0 0 0 0 0 0 0 0.25 0"/>
<feBlend mode="normal" in2="BackgroundImageFix" result="effect1_dropShadow"/>
<feBlend mode="normal" in="SourceGraphic" in2="effect1_dropShadow" result="shape"/>
</filter>
<filter id="filter1_d" x="95.9043" y="200.5" width="141.491" height="36.5938" filterUnits="userSpaceOnUse" color-interpolation-filters="sRGB">
<feFlood flood-opacity="0" result="BackgroundImageFix"/>
<feColorMatrix in="SourceAlpha" type="matrix" values="0 0 0 0 0 0 0 0 0 0 0 0 0 0 0 0 0 0 127 0"/>
<feOffset dy="4"/>
<feGaussianBlur stdDeviation="2"/>
<feColorMatrix type="matrix" values="0 0 0 0 0 0 0 0 0 0 0 0 0 0 0 0 0 0 0.25 0"/>
<feBlend mode="normal" in2="BackgroundImageFix" result="effect1_dropShadow"/>
<feBlend mode="normal" in="SourceGraphic" in2="effect1_dropShadow" result="shape"/>
</filter>
<linearGradient id="paint0_linear" x1="-85.5" y1="-34.5" x2="250" y2="273.5" gradientUnits="userSpaceOnUse">
<stop stop-color="#F1F1F1"/>
<stop offset="0.255208" stop-color="#359BFF"/>
<stop offset="0.666667" stop-color="#0876E1"/>
</linearGradient>
</defs>
</svg>
